# This file uses meters as units for non-parametric coordinates.

mtllib Car_Antiai_2.mtl
g default
v 0.872951 -34.354195 -1.432209
v -0.720799 -34.354195 -1.432209
v -1.517674 -34.354195 -0.051945
v -0.720799 -34.354195 1.328319
v 0.872951 -34.354195 1.328319
v 1.669826 -34.354195 -0.051945
v 0.076076 -34.354195 -0.051945
v -3.429051 -36.912385 3.590954
v 3.733059 -36.912385 3.590954
v -1.564793 -26.719620 1.726848
v 1.868801 -26.719620 1.726848
v -1.564793 -26.719620 -1.706928
v 1.868801 -26.719620 -1.706928
v -3.429051 -36.912385 -3.571034
v 3.733059 -36.912385 -3.571034
vt 0.780336 0.668990
vt 0.780336 0.651312
vt 0.795647 0.660151
vt 0.795647 0.677830
vt 0.810957 0.668990
vt 0.810957 0.651312
vt 0.795647 0.642472
vt 0.860239 0.676965
vt 0.895569 0.676965
vt 0.886373 0.712295
vt 0.869434 0.712295
vt 0.764474 0.735204
vt 0.781412 0.735204
vt 0.781412 0.752143
vt 0.764474 0.752143
vt 0.792381 0.696343
vt 0.792381 0.679404
vt 0.827710 0.670209
vt 0.827710 0.705539
vt 0.764474 0.698888
vt 0.799803 0.698888
vt 0.799803 0.734217
vt 0.764474 0.734217
vt 0.828513 0.700650
vt 0.863843 0.700650
vt 0.854647 0.735980
vt 0.837708 0.735980
vt 0.861414 0.712879
vt 0.896744 0.712879
vt 0.887548 0.748208
vt 0.870609 0.748208
vn 0.000000 -1.000000 0.000000
vn 0.000000 -1.000000 0.000000
vn 0.000000 -1.000000 0.000000
vn 0.000000 -1.000000 0.000000
vn 0.000000 -1.000000 0.000000
vn 0.000000 -1.000000 0.000000
vn 0.000000 -1.000000 0.000000
vn -0.632745 -0.446407 0.632735
vn 0.632745 -0.446407 0.632735
vn 0.657135 0.369249 0.657137
vn -0.657135 0.369249 0.657137
vn 0.657135 0.369249 -0.657137
vn -0.657135 0.369249 -0.657137
vn 0.632745 -0.446407 -0.632736
vn -0.632745 -0.446407 -0.632736
s 1
g Car_Antiai_2
usemtl lambert37SG
f 2/1/1 1/2/2 7/3/3
f 3/4/4 2/1/1 7/3/3
f 4/5/5 3/4/4 7/3/3
f 5/6/6 4/5/5 7/3/3
f 6/7/7 5/6/6 7/3/3
f 1/2/2 6/7/7 7/3/3
s 2
f 8/8/8 9/9/9 11/10/10 10/11/11
f 10/12/11 11/13/10 13/14/12 12/15/13
f 12/16/13 13/17/12 15/18/14 14/19/15
f 14/20/15 15/21/14 9/22/9 8/23/8
f 9/24/9 15/25/14 13/26/12 11/27/10
f 14/28/15 8/29/8 10/30/11 12/31/13
