# This file uses meters as units for non-parametric coordinates.

mtllib Shopfront_B.mtl
g default
v -59.964598 194.721504 8.436783
v 59.965089 194.721504 8.436783
v -59.964598 261.091743 8.436783
v 59.965089 261.091743 8.436783
v -59.964598 261.091743 -8.437241
v 59.965089 261.091743 -8.437241
v -59.964598 194.721504 -8.437241
v 59.965089 194.721504 -8.437241
v -44.165526 -6.200012 5.808365
v 42.892579 -6.200012 5.808365
v -44.165526 194.086571 5.808365
v 42.892579 194.086571 5.808365
v -44.165526 194.086571 -1.237533
v 42.892579 194.086571 -1.237533
v -44.165526 -6.200012 -1.237533
v 42.892579 -6.200012 -1.237533
v -44.165526 66.772629 5.808365
v 42.892579 66.772629 5.808365
v 42.892579 66.772629 -1.237533
v -44.165526 66.772629 -1.237533
v -0.636473 -6.200012 5.808365
v -0.636473 -6.200012 -1.237533
v -0.636473 66.772629 -1.237533
v -0.636473 194.086571 -1.237533
v -0.636473 194.086571 5.808365
v -0.636473 66.772629 5.808365
v -36.265502 186.186546 -0.736557
v -8.536498 186.186546 -0.736557
v -8.536498 74.672607 -0.736557
v -36.265502 74.672607 -0.736557
v 7.263673 74.672607 -0.736557
v 7.263673 186.186546 -0.736557
v 34.992677 186.186546 -0.736557
v 34.992677 74.672607 -0.736557
v 12.782594 84.598083 4.683365
v 12.782594 176.261101 4.683365
v 29.473756 176.261101 4.683365
v 29.473756 84.598083 4.683365
v -30.996093 176.261101 4.683365
v -13.805785 176.261101 4.683365
v -13.805785 84.598068 4.683365
v -30.996093 84.598068 4.683365
v -6.836425 60.572617 -5.638901
v -37.965453 60.572617 -5.638901
v -6.836425 0.000000 -5.638901
v -37.965453 0.000000 -5.638901
v 5.463502 -0.100006 -5.638901
v 5.463502 60.672638 -5.638901
v 36.792604 60.672638 -5.638901
v 36.792604 -0.100006 -5.638901
v -41.995238 75.630630 -2.628647
v -38.724486 75.630630 -2.628647
v -41.995238 80.962189 -2.628647
v -38.724486 80.962189 -2.628647
v -41.995238 80.962189 -7.398666
v -38.724486 80.962189 -7.398666
v -41.995238 75.630630 -7.398666
v -38.724486 75.630630 -7.398666
v -41.995238 78.041824 -2.628647
v -38.724486 78.041824 -2.628647
v -38.724486 78.041824 -7.398666
v -41.995238 78.041824 -7.398666
v -41.995238 80.962189 -4.760483
v -38.724486 80.962189 -4.760483
v -38.724486 78.041824 -4.760483
v -38.724486 75.630630 -4.760483
v -41.995238 75.630630 -4.760483
v -41.995238 78.041824 -4.760483
v -29.613524 80.528732 -4.760483
v -30.557860 77.765289 -4.760483
v -30.557860 77.765289 -7.398666
v -29.613524 80.528732 -7.398666
v -43.258422 65.712723 2.759049
v -37.460814 65.712723 2.759049
v -43.258422 81.683701 2.759049
v -37.460814 81.683701 2.759049
v -43.258422 81.683701 -3.297592
v -37.460814 81.683701 -3.297592
v -43.258422 65.712723 -3.297592
v -37.460814 65.712723 -3.297592
vt 0.658122 0.170917
vt 0.698137 0.173190
vt 0.832464 0.192645
vt 0.836113 0.167454
vt 0.701786 0.147999
vt 0.661664 0.146458
vt 0.527337 0.127003
vt 0.523795 0.151462
vt 0.884905 0.884556
vt 0.889822 0.884556
vt 0.889822 0.973417
vt 0.884905 0.973417
vt 0.884905 0.833624
vt 0.889822 0.833624
vt 0.892894 0.837882
vt 0.892894 0.880299
vt 0.897002 0.884556
vt 0.901919 0.884556
vt 0.901919 0.973417
vt 0.897002 0.973417
vt 0.897002 0.833624
vt 0.901919 0.833624
vt 0.893930 0.880229
vt 0.893930 0.837952
vt 0.969845 0.864006
vt 0.964928 0.864006
vt 0.964928 0.833624
vt 0.969845 0.833624
vt 0.964928 0.894388
vt 0.969845 0.894388
vt 0.976646 0.925386
vt 0.971728 0.925386
vt 0.971728 0.895004
vt 0.976646 0.895004
vt 0.971728 0.955767
vt 0.976646 0.955767
vt 0.968656 0.921128
vt 0.968656 0.899262
vt 0.968656 0.951440
vt 0.968656 0.929713
vt 0.853283 0.973417
vt 0.853283 0.884556
vt 0.883665 0.884556
vt 0.883665 0.973417
vt 0.822902 0.884556
vt 0.822902 0.973417
vt 0.853283 0.833624
vt 0.883665 0.833624
vt 0.822902 0.833624
vt 0.937594 0.969159
vt 0.937594 0.926742
vt 0.959460 0.926742
vt 0.959460 0.969159
vt 0.933336 0.973417
vt 0.933336 0.922485
vt 0.963718 0.922485
vt 0.929009 0.969089
vt 0.929009 0.926812
vt 0.938850 0.916971
vt 0.958204 0.916971
vt 0.907282 0.926812
vt 0.907282 0.969089
vt 0.902955 0.922485
vt 0.933336 0.833624
vt 0.938850 0.839138
vt 0.942702 0.910043
vt 0.954352 0.910043
vt 0.963718 0.833624
vt 0.958204 0.839138
vt 0.908469 0.916971
vt 0.927823 0.916971
vt 0.927823 0.839138
vt 0.942702 0.846066
vt 0.954352 0.846066
vt 0.902955 0.833624
vt 0.908469 0.839138
vt 0.912147 0.910043
vt 0.924145 0.910043
vt 0.924145 0.846066
vt 0.912147 0.846066
vt 0.528683 0.436774
vt 0.528683 0.404063
vt 0.559908 0.404063
vt 0.559908 0.436774
vt 0.659296 0.393884
vt 0.690520 0.393884
vt 0.690520 0.428452
vt 0.659296 0.428452
vt 0.659296 0.365342
vt 0.690520 0.365342
vt 0.715757 0.393884
vt 0.715757 0.428452
vt 0.715757 0.365342
vt 0.626668 0.432600
vt 0.626668 0.404058
vt 0.657893 0.404058
vt 0.657893 0.432600
vt 0.601432 0.404058
vt 0.601432 0.432600
vt 0.626668 0.467168
vt 0.601432 0.467168
vt 0.553677 0.403149
vt 0.553677 0.364430
vt 0.584902 0.364430
vt 0.584902 0.403149
vt 0.528440 0.403149
vt 0.528440 0.364430
vt 0.553677 0.256587
vt 0.584902 0.256587
vt 0.561311 0.404065
vt 0.600027 0.404065
vt 0.600027 0.435290
vt 0.561311 0.435290
vt 0.600027 0.460526
vt 0.561311 0.460526
vt 0.721703 0.353255
vt 0.690478 0.353255
vt 0.690478 0.256587
vt 0.721703 0.256587
vt 0.717161 0.382710
vt 0.755877 0.382710
vt 0.755877 0.417279
vt 0.717161 0.417279
vt 0.717161 0.354169
vt 0.755877 0.354169
vt 0.586340 0.403147
vt 0.586340 0.364431
vt 0.620908 0.364431
vt 0.620908 0.403147
vt 0.591470 0.256584
vt 0.624182 0.267763
vt 0.649450 0.364431
vt 0.649450 0.403147
vt 0.688711 0.364431
vt 0.654143 0.364431
vt 0.650870 0.267763
vt 0.683581 0.256584
vt 0.343996 0.317861
vt 0.365757 0.317861
vt 0.365757 0.403450
vt 0.343996 0.403450
vt 0.345721 0.404432
vt 0.367481 0.404432
vt 0.367481 0.490021
vt 0.345721 0.490021
vt 0.318426 0.473501
vt 0.326237 0.473501
vt 0.326237 0.494096
vt 0.318426 0.494096
vt 0.309105 0.473501
vt 0.316916 0.473501
vt 0.316916 0.494096
vt 0.309105 0.494096
vt 0.296978 0.472518
vt 0.296978 0.317861
vt 0.318739 0.317861
vt 0.318739 0.472518
vt 0.320487 0.472518
vt 0.320487 0.317861
vt 0.342247 0.317861
vt 0.342247 0.472518
vt 0.300118 0.473501
vt 0.307594 0.473501
vt 0.307594 0.481312
vt 0.300118 0.481312
vt 0.291131 0.473501
vt 0.298607 0.473501
vt 0.298607 0.481312
vt 0.291131 0.481312
vt 0.122294 0.472518
vt 0.122294 0.317861
vt 0.207883 0.317861
vt 0.207883 0.472518
vt 0.339890 0.203093
vt 0.160982 0.203093
vt 0.160982 0.102037
vt 0.339890 0.102037
vt 0.336734 0.473501
vt 0.344210 0.473501
vt 0.344210 0.494096
vt 0.336734 0.494096
vt 0.327747 0.473501
vt 0.335224 0.473501
vt 0.335224 0.494096
vt 0.327747 0.494096
vn -0.135108 -0.244143 0.960281
vn 0.135108 -0.244143 0.960281
vn 0.135108 0.244143 0.960281
vn -0.135108 0.244143 0.960281
vn 0.135108 0.244143 -0.960281
vn -0.135108 0.244143 -0.960281
vn 0.135108 -0.244143 -0.960281
vn -0.135108 -0.244143 -0.960281
vn 0.000000 0.055258 0.998472
vn 0.000000 0.000000 1.000000
vn 0.159789 0.000000 0.987151
vn 0.159553 0.054550 0.985681
vn -0.000004 0.436810 -0.899554
vn 0.786157 0.269966 -0.555945
vn 0.306051 0.054640 -0.950446
vn 0.306051 -0.054640 -0.950446
vn -0.306048 -0.054640 -0.950447
vn -0.306048 0.054639 -0.950447
vn 0.000000 -0.096108 0.995371
vn -0.000708 -0.740933 -0.671579
vn 0.784427 -0.460854 -0.415077
vn 0.159065 -0.094885 0.982698
vn 0.845203 0.055812 -0.531523
vn -0.844088 0.055475 -0.533327
vn -0.159789 0.000000 0.987151
vn -0.159553 0.054550 0.985681
vn -0.786155 0.269963 -0.555950
vn -0.147688 -0.082662 -0.985574
vn -0.147688 0.082662 -0.985574
vn 0.147689 0.082662 -0.985573
vn 0.147689 -0.082662 -0.985573
vn -0.782763 -0.459781 -0.419385
vn -0.159065 -0.094885 0.982698
vn -0.147845 0.082658 -0.985550
vn 0.147846 0.082658 -0.985550
vn 0.147846 -0.082658 -0.985550
vn -0.147845 -0.082658 -0.985550
vn 0.306249 -0.054554 -0.950387
vn -0.306251 -0.054554 -0.950387
vn -0.306251 0.054554 -0.950387
vn 0.306249 0.054554 -0.950387
vn -0.141587 -0.051094 -0.988606
vn 0.141580 -0.051094 -0.988607
vn -0.000393 0.103943 -0.994583
vn -0.141587 0.051094 -0.988606
vn 0.141580 0.051094 -0.988607
vn 0.142651 -0.049812 -0.988519
vn 0.142650 0.049812 -0.988519
vn -0.142660 -0.049812 -0.988518
vn -0.142660 0.049813 -0.988518
vn -0.546015 0.000000 0.837776
vn 0.546015 0.000000 0.837776
vn 0.465827 0.521726 0.714708
vn -0.465827 0.521726 0.714708
vn -0.666034 0.745921 0.000000
vn 0.157124 0.845074 0.511040
vn 0.024427 0.697688 -0.715985
vn -0.513600 0.575180 -0.636697
vn 0.116971 -0.447470 -0.886616
vn -0.627843 0.000000 -0.778340
vn -0.477985 -0.648369 -0.592578
vn 0.477985 -0.648369 -0.592578
vn 0.593369 -0.804930 0.000000
vn -0.593369 -0.804930 0.000000
vn 0.274105 0.700194 0.659238
vn 0.170370 -0.624114 0.762532
vn 0.170352 -0.624116 -0.762535
vn 0.274090 0.700197 -0.659241
vn -1.000000 0.000000 0.000000
vn -0.438743 -0.595216 0.673218
vn 0.438743 -0.595216 0.673218
vn 0.455800 -0.577731 0.677107
vn -0.698775 -0.253649 0.668862
vn 0.698775 -0.253649 0.668862
vn 0.698775 0.253649 0.668862
vn -0.698775 0.253649 0.668862
vn 0.698775 0.253649 -0.668862
vn -0.698775 0.253649 -0.668862
vn 0.698775 -0.253649 -0.668862
vn -0.698775 -0.253649 -0.668862
s 1
g ShopFront_B
usemtl lambert23SG
f 1/170/1 2/171/2 4/172/3 3/173/4
f 3/154/4 4/155/3 6/156/5 5/157/6
f 5/174/6 6/175/5 8/176/7 7/177/8
f 7/158/8 8/159/7 2/160/2 1/161/1
f 2/138/2 8/139/7 6/140/5 4/141/3
f 7/142/8 1/143/1 3/144/4 5/145/6
s 2
f 25/41/9 26/42/10 18/43/11 12/44/12
f 24/25/13 25/26/9 12/27/12 14/28/14
f 35/1/15 36/8/16 37/7/17 38/6/18
f 21/31/19 22/32/20 16/33/21 10/34/22
f 18/9/11 19/10/23 14/11/14 12/12/12
f 20/17/24 17/18/25 11/19/26 13/20/27
f 26/42/10 21/47/19 10/48/22 18/43/11
f 10/13/22 16/14/21 19/10/23 18/9/11
f 47/50/28 48/51/29 49/52/30 50/53/31
f 15/21/32 9/22/33 17/18/25 20/17/24
f 15/35/32 22/32/20 21/31/19 9/36/33
f 44/61/34 43/58/35 45/57/36 46/62/37
f 39/2/38 40/5/39 41/4/40 42/3/41
f 11/29/26 25/26/9 24/25/13 13/30/27
f 17/45/25 26/42/10 25/41/9 11/46/26
f 9/49/33 21/47/19 26/42/10 17/45/25
f 13/75/27 24/64/13 28/72/42 27/76/43
f 24/64/13 23/55/44 29/71/45 28/72/42
f 23/55/44 20/63/24 30/70/46 29/71/45
f 20/63/24 13/75/27 27/76/43 30/70/46
f 23/55/44 24/64/13 32/65/47 31/59/48
f 24/64/13 14/68/14 33/69/49 32/65/47
f 14/68/14 19/56/23 34/60/50 33/69/49
f 19/56/23 23/55/44 31/59/48 34/60/50
f 31/59/48 32/65/47 36/73/16 35/66/15
f 32/65/47 33/69/49 37/74/17 36/73/16
f 33/69/49 34/60/50 38/67/18 37/74/17
f 34/60/50 31/59/48 35/66/15 38/67/18
f 27/76/43 28/72/42 40/79/39 39/80/38
f 28/72/42 29/71/45 41/78/40 40/79/39
f 29/71/45 30/70/46 42/77/41 41/78/40
f 30/70/46 27/76/43 39/80/38 42/77/41
f 20/63/24 23/55/44 43/58/35 44/61/34
f 23/55/44 22/54/20 45/57/36 43/58/35
f 22/32/20 15/35/32 46/39/37 45/40/36
f 15/21/32 20/17/24 44/23/34 46/24/37
f 22/54/20 23/55/44 48/51/29 47/50/28
f 23/55/44 19/56/23 49/52/30 48/51/29
f 19/10/23 16/14/21 50/15/31 49/16/30
f 16/33/21 22/32/20 47/37/28 50/38/31
s 9
f 59/120/51 60/121/52 54/122/53 53/123/54
f 63/102/55 64/103/56 56/104/57 55/105/58
f 55/126/58 56/127/57 61/128/59 62/129/60
f 57/110/61 58/111/62 66/112/63 67/113/64
f 69/81/65 70/82/66 71/83/67 72/84/68
f 62/85/60 68/86/69 63/87/55 55/88/58
f 51/124/70 52/125/71 60/121/52 59/120/51
f 65/94/72 66/95/63 58/96/62 61/97/59
f 62/129/60 61/128/59 58/132/62 57/133/61
f 57/89/61 67/90/64 68/86/69 62/85/60
f 53/106/54 54/107/53 64/103/56 63/102/55
f 60/99/52 65/94/72 64/100/56 54/101/53
f 52/98/71 66/95/63 65/94/72 60/99/52
f 67/113/64 66/112/63 52/114/71 51/115/70
f 68/86/69 67/90/64 51/93/70 59/91/51
f 63/87/55 68/86/69 59/91/51 53/92/54
f 64/134/56 65/135/72 70/136/66 69/137/65
f 65/116/72 61/117/59 71/118/67 70/119/66
f 61/128/59 56/127/57 72/130/68 71/131/67
f 56/104/57 64/103/56 69/108/65 72/109/68
s 11
f 73/178/73 74/179/74 76/180/75 75/181/76
f 75/162/76 76/163/75 78/164/77 77/165/78
f 77/182/78 78/183/77 80/184/79 79/185/80
f 79/166/80 80/167/79 74/168/74 73/169/73
f 74/146/74 80/147/79 78/148/77 76/149/75
f 79/150/80 73/151/73 75/152/76 77/153/78
