# This file uses meters as units for non-parametric coordinates.

mtllib Directions_Sign_7.mtl
g default
v 3.404389 -12.085805 -1.643372
v 3.404389 18.150357 -1.643372
v 102.093905 -12.085805 -1.643372
v 102.603608 18.150357 -1.643372
v 110.708005 1.895899 -1.643372
v 3.404389 -12.085805 3.356632
v 3.404389 18.150357 3.356632
v 102.093905 -12.085805 3.356632
v 110.708005 1.895899 3.356632
v 102.603608 18.150357 3.356632
vt 0.229882 0.399672
vt 0.560944 0.500581
vt 0.587991 0.446334
vt 0.559243 0.399672
vt 0.229882 0.500581
vt 0.223178 0.404108
vt 0.223178 0.299421
vt 0.564870 0.299421
vt 0.594695 0.347830
vt 0.566635 0.404108
vt 0.229882 0.500581
vt 0.229882 0.399672
vt 0.559243 0.399672
vt 0.587991 0.446334
vt 0.560944 0.500581
vn -0.047824 0.156902 0.986456
vn -0.047830 -0.156116 0.986580
vn 0.016452 -0.126265 0.991860
vn 0.035782 -0.000603 0.999359
vn 0.019955 0.131730 0.991085
vn -0.047824 0.156902 -0.986456
vn 0.019955 0.131729 -0.991085
vn 0.035782 -0.000603 -0.999359
vn 0.016452 -0.126265 -0.991860
vn -0.047830 -0.156116 -0.986580
s 1
g Directions_Sign_7
usemtl lambert20SG
f 7/11/1 6/12/2 8/13/3 9/14/4 10/15/5
f 2/6/6 4/10/7 5/9/8 3/8/9 1/7/10
f 2/5/6 1/1/10 6/12/2 7/11/1
f 1/1/10 3/4/9 8/13/3 6/12/2
f 3/4/9 5/3/8 9/14/4 8/13/3
f 5/3/8 4/2/7 10/15/5 9/14/4
f 4/2/7 2/5/6 7/11/1 10/15/5
