# This file uses meters as units for non-parametric coordinates.

mtllib Traffic_Sign_7.mtl
g default
v 2.545537 3.652160 -1.384813
v 1.420401 3.652160 -2.509996
v -0.116685 3.652160 -2.921828
v -1.653771 3.652160 -2.509996
v -2.778907 3.652160 -1.384813
v -3.190763 3.652160 0.152226
v -2.778907 3.652160 1.689264
v -1.653771 3.652160 2.814447
v -0.116685 3.652160 3.226279
v 1.420401 3.652160 2.814447
v 2.545537 3.652160 1.689264
v 2.957392 3.652160 0.152226
v 2.545537 193.241160 -1.384813
v 1.420401 193.241160 -2.509996
v -0.116685 193.241160 -2.921828
v -1.653771 193.241160 -2.509996
v -2.778907 193.241160 -1.384813
v -3.190763 193.241160 0.152226
v -2.778907 193.241160 1.689264
v -1.653771 193.241160 2.814447
v -0.116685 193.241160 3.226279
v 1.420401 193.241160 2.814447
v 2.545537 193.241160 1.689264
v 2.957392 193.241160 0.152226
v -0.116685 3.652160 0.152226
v -0.116685 193.241160 0.152226
v -16.527500 186.863214 -3.859434
v -41.200871 211.340303 -3.859434
v -41.200871 244.872823 -3.859434
v -15.914193 268.767451 -3.859434
v 19.065087 268.767451 -3.859434
v 41.200895 244.558042 -3.859434
v 41.200895 210.584504 -3.859434
v 17.257106 186.863214 -3.859434
v -41.200871 244.872823 3.859422
v -15.914193 268.767451 3.859422
v -41.200871 211.340303 3.859422
v -16.527500 186.863214 3.859422
v 17.257106 186.863214 3.859422
v 41.200895 210.584504 3.859422
v 41.200895 244.558042 3.859422
v 19.065087 268.767451 3.859422
vt 0.445787 0.060776
vt 0.448135 0.060776
vt 0.448135 0.350441
vt 0.445787 0.350441
vt 0.450483 0.060776
vt 0.450483 0.350441
vt 0.444067 0.060776
vt 0.444067 0.350441
vt 0.452202 0.060776
vt 0.452202 0.350441
vt 0.428891 0.060776
vt 0.431239 0.060776
vt 0.431239 0.350441
vt 0.428891 0.350441
vt 0.433588 0.060776
vt 0.433588 0.350441
vt 0.427172 0.060776
vt 0.427172 0.350441
vt 0.435307 0.060776
vt 0.435307 0.350441
vt 0.461540 0.063124
vt 0.463259 0.061405
vt 0.465607 0.065473
vt 0.465607 0.060776
vt 0.460911 0.065473
vt 0.467956 0.061405
vt 0.461540 0.067821
vt 0.469675 0.063124
vt 0.463259 0.069540
vt 0.470304 0.065473
vt 0.465607 0.070169
vt 0.469675 0.067821
vt 0.467956 0.069540
vt 0.479009 0.061405
vt 0.480728 0.063124
vt 0.476661 0.065473
vt 0.481357 0.065473
vt 0.476661 0.060776
vt 0.480728 0.067821
vt 0.474312 0.061405
vt 0.479009 0.069540
vt 0.472593 0.063124
vt 0.476661 0.070169
vt 0.471964 0.065473
vt 0.474312 0.069540
vt 0.472593 0.067821
vt 0.441922 0.350441
vt 0.439573 0.350441
vt 0.439573 0.060776
vt 0.441922 0.060776
vt 0.437225 0.350441
vt 0.437225 0.060776
vt 0.454068 0.060776
vt 0.456417 0.060776
vt 0.456417 0.350441
vt 0.454068 0.350441
vt 0.458765 0.060776
vt 0.458765 0.350441
vt 0.774352 0.653084
vt 0.695460 0.578535
vt 0.695460 0.473916
vt 0.772438 0.397550
vt 0.877843 0.397550
vt 0.952546 0.471558
vt 0.952546 0.577553
vt 0.883484 0.653084
vt 0.851409 0.408585
vt 0.929765 0.408585
vt 0.979350 0.354354
vt 0.979350 0.278251
vt 0.925715 0.225114
vt 0.850035 0.225114
vt 0.794765 0.279944
vt 0.794765 0.355059
vt 0.833437 0.210575
vt 0.833437 0.153243
vt 0.851958 0.153243
vt 0.851958 0.210575
vt 0.833437 0.072786
vt 0.851958 0.072786
vt 0.833437 0.014056
vt 0.851958 0.014056
vt 0.893015 0.095118
vt 0.893015 0.014056
vt 0.911535 0.014056
vt 0.911535 0.095118
vt 0.853320 0.210575
vt 0.853320 0.153659
vt 0.871840 0.153659
vt 0.871840 0.210575
vt 0.853320 0.072144
vt 0.871840 0.072144
vt 0.853320 0.014056
vt 0.871840 0.014056
vt 0.891688 0.014056
vt 0.891688 0.097985
vt 0.873167 0.097985
vt 0.873167 0.014056
vn 0.866011 -0.006756 -0.499979
vn 0.499986 -0.006756 -0.866007
vn 0.499986 0.006756 -0.866007
vn 0.866011 0.006756 -0.499979
vn 0.000000 -0.006756 -0.999977
vn 0.000000 0.006756 -0.999977
vn -0.499986 -0.006756 -0.866007
vn -0.499986 0.006756 -0.866007
vn -0.866011 -0.006756 -0.499979
vn -0.866011 0.006756 -0.499979
vn -0.999977 -0.006756 0.000000
vn -0.999977 0.006756 0.000000
vn -0.866013 -0.006756 0.499976
vn -0.866013 0.006756 0.499976
vn -0.499986 -0.006756 0.866007
vn -0.499986 0.006756 0.866007
vn 0.000000 -0.006756 0.999977
vn 0.000000 0.006756 0.999977
vn 0.499986 -0.006756 0.866007
vn 0.499986 0.006756 0.866007
vn 0.866013 -0.006756 0.499976
vn 0.866013 0.006756 0.499976
vn 0.999977 -0.006756 -0.000000
vn 0.999977 0.006756 0.000000
vn 0.000000 -1.000000 0.000000
vn 0.000000 1.000000 0.000000
vn -0.021686 0.054695 0.998268
vn -0.053388 0.023508 0.998297
vn -0.053373 -0.022701 0.998317
vn -0.022444 -0.053603 0.998310
vn 0.021746 -0.052921 0.998362
vn 0.053099 -0.022037 0.998346
vn 0.052451 0.019955 0.998424
vn 0.022666 0.053475 0.998312
vn -0.021686 0.054695 -0.998268
vn 0.022666 0.053475 -0.998312
vn 0.052451 0.019955 -0.998424
vn 0.053099 -0.022037 -0.998346
vn 0.021745 -0.052921 -0.998362
vn -0.022445 -0.053603 -0.998310
vn -0.053373 -0.022701 -0.998317
vn -0.053388 0.023508 -0.998297
s 1
g Traffic_Sign_7
usemtl lambert10SG
f 1/15/1 2/19/2 14/20/3 13/16/4
f 2/47/2 3/48/5 15/49/6 14/50/3
f 3/48/5 4/51/7 16/52/8 15/49/6
f 4/7/7 5/1/9 17/4/10 16/8/8
f 5/1/9 6/2/11 18/3/12 17/4/10
f 6/2/11 7/5/13 19/6/14 18/3/12
f 7/5/13 8/9/15 20/10/16 19/6/14
f 8/53/15 9/54/17 21/55/18 20/56/16
f 9/54/17 10/57/19 22/58/20 21/55/18
f 10/17/19 11/11/21 23/14/22 22/18/20
f 11/11/21 12/12/23 24/13/24 23/14/22
f 12/12/23 1/15/1 13/16/4 24/13/24
f 2/21/2 1/22/1 25/23/25
f 3/25/5 2/21/2 25/23/25
f 4/27/7 3/25/5 25/23/25
f 5/29/9 4/27/7 25/23/25
f 6/31/11 5/29/9 25/23/25
f 7/33/13 6/31/11 25/23/25
f 8/32/15 7/33/13 25/23/25
f 9/30/17 8/32/15 25/23/25
f 10/28/19 9/30/17 25/23/25
f 11/26/21 10/28/19 25/23/25
f 12/24/23 11/26/21 25/23/25
f 1/22/1 12/24/23 25/23/25
f 13/34/4 14/35/3 26/36/26
f 14/35/3 15/37/6 26/36/26
f 15/37/6 16/39/8 26/36/26
f 16/39/8 17/41/10 26/36/26
f 17/41/10 18/43/12 26/36/26
f 18/43/12 19/45/14 26/36/26
f 19/45/14 20/46/16 26/36/26
f 20/46/16 21/44/18 26/36/26
f 21/44/18 22/42/20 26/36/26
f 22/42/20 23/40/22 26/36/26
f 23/40/22 24/38/24 26/36/26
f 24/38/24 13/34/4 26/36/26
s 2
f 36/59/27 35/60/28 37/61/29 38/62/30 39/63/31 40/64/32 41/65/33 42/66/34
f 30/67/35 31/68/36 32/69/37 33/70/38 34/71/39 27/72/40 28/73/41 29/74/42
f 30/75/35 29/76/42 35/77/28 36/78/27
f 29/76/42 28/79/41 37/80/29 35/77/28
f 28/79/41 27/81/40 38/82/30 37/80/29
f 27/83/40 34/84/39 39/85/31 38/86/30
f 34/87/39 33/88/38 40/89/32 39/90/31
f 33/88/38 32/91/37 41/92/33 40/89/32
f 32/91/37 31/93/36 42/94/34 41/92/33
f 31/95/36 30/96/35 36/97/27 42/98/34
