# This file uses meters as units for non-parametric coordinates.

mtllib Traffic_Sign_4.mtl
g default
v 39.476777 232.270199 -3.859439
v 29.627292 250.786534 -3.859439
v 11.839195 261.897357 -3.859439
v -9.121161 262.625666 -3.859439
v -27.637425 252.776181 -3.859439
v -38.748295 234.988131 -3.859439
v -39.476651 214.027764 -3.859439
v -29.627165 195.511441 -3.859439
v -11.839069 184.400582 -3.859439
v 9.121287 183.672309 -3.859439
v 27.637456 193.521771 -3.859439
v 38.748421 211.309879 -3.859439
v 0.000157 223.148929 -3.859439
v 39.476777 232.270199 3.859440
v 29.627292 250.786534 3.859440
v 0.000157 223.148929 3.859440
v 11.839195 261.897357 3.859440
v -9.121161 262.625666 3.859440
v -27.637425 252.776181 3.859440
v -38.748295 234.988131 3.859440
v -39.476651 214.027764 3.859440
v -29.627165 195.511441 3.859440
v -11.839069 184.400582 3.859440
v 9.121287 183.672309 3.859440
v 27.637456 193.521771 3.859440
v 38.748421 211.309879 3.859440
v 1.353976 -1.316881 -1.185086
v 0.228746 -1.316881 -2.310269
v -1.308245 -1.316881 -2.722101
v -2.845237 -1.316881 -2.310269
v -3.970467 -1.316881 -1.185086
v -4.382323 -1.316881 0.351952
v -3.970467 -1.316881 1.888991
v -2.845237 -1.316881 3.014174
v -1.308245 -1.316881 3.426006
v 0.228746 -1.316881 3.014174
v 1.353976 -1.316881 1.888991
v 1.765832 -1.316881 0.351952
v 1.353976 188.272118 -1.185086
v 0.228746 188.272118 -2.310269
v -1.308245 188.272118 -2.722101
v -2.845237 188.272118 -2.310269
v -3.970467 188.272118 -1.185086
v -4.382323 188.272118 0.351952
v -3.970467 188.272118 1.888991
v -2.845237 188.272118 3.014174
v -1.308245 188.272118 3.426006
v 0.228746 188.272118 3.014174
v 1.353976 188.272118 1.888991
v 1.765832 188.272118 0.351952
v -1.308245 -1.316881 0.351952
v -1.308245 188.272118 0.351952
vt 0.675661 0.209197
vt 0.977666 0.345373
vt 0.956177 0.384745
vt 0.893452 0.324960
vt 0.917881 0.408097
vt 0.873039 0.409173
vt 0.833667 0.387684
vt 0.810315 0.349388
vt 0.809239 0.304547
vt 0.830728 0.265175
vt 0.869024 0.241823
vt 0.913865 0.240746
vt 0.953237 0.262235
vt 0.976590 0.300531
vt 0.798634 0.239005
vt 0.767255 0.296498
vt 0.711333 0.330599
vt 0.645853 0.332170
vt 0.588360 0.300791
vt 0.554259 0.244869
vt 0.552688 0.179389
vt 0.584067 0.121896
vt 0.639989 0.087795
vt 0.705469 0.086224
vt 0.762962 0.117603
vt 0.797063 0.173525
vt 0.848148 0.187797
vt 0.848148 0.122682
vt 0.872958 0.122682
vt 0.872958 0.187797
vt 0.848148 0.057566
vt 0.872958 0.057566
vt 0.848148 0.235464
vt 0.872958 0.235464
vt 0.848148 0.009899
vt 0.872958 0.009899
vt 0.821641 0.187797
vt 0.821641 0.122681
vt 0.846452 0.122681
vt 0.846452 0.187797
vt 0.821641 0.057566
vt 0.846452 0.057566
vt 0.821641 0.235464
vt 0.846452 0.235464
vt 0.821641 0.009899
vt 0.846452 0.009899
vt 0.899423 0.009899
vt 0.899423 0.075014
vt 0.874613 0.075014
vt 0.874613 0.009899
vt 0.899423 0.140129
vt 0.874613 0.140129
vt 0.901078 0.140129
vt 0.901078 0.075014
vt 0.925889 0.075014
vt 0.925889 0.140129
vt 0.901078 0.009899
vt 0.925889 0.009899
vt 0.433588 0.060776
vt 0.435307 0.060776
vt 0.435307 0.350441
vt 0.433588 0.350441
vt 0.441922 0.350441
vt 0.439573 0.350441
vt 0.439573 0.060776
vt 0.441922 0.060776
vt 0.437225 0.350441
vt 0.437225 0.060776
vt 0.444067 0.060776
vt 0.445787 0.060776
vt 0.445787 0.350441
vt 0.444067 0.350441
vt 0.448135 0.060776
vt 0.448135 0.350441
vt 0.450483 0.060776
vt 0.450483 0.350441
vt 0.452202 0.060776
vt 0.452202 0.350441
vt 0.454068 0.060776
vt 0.456417 0.060776
vt 0.456417 0.350441
vt 0.454068 0.350441
vt 0.458765 0.060776
vt 0.458765 0.350441
vt 0.427172 0.060776
vt 0.428891 0.060776
vt 0.428891 0.350441
vt 0.427172 0.350441
vt 0.431239 0.060776
vt 0.431239 0.350441
vt 0.461540 0.063124
vt 0.463259 0.061405
vt 0.465607 0.065473
vt 0.460911 0.065473
vt 0.461540 0.067821
vt 0.463259 0.069540
vt 0.465607 0.070169
vt 0.467956 0.069540
vt 0.469675 0.067821
vt 0.470304 0.065473
vt 0.469675 0.063124
vt 0.467956 0.061405
vt 0.465607 0.060776
vt 0.479009 0.061405
vt 0.480728 0.063124
vt 0.476661 0.065473
vt 0.481357 0.065473
vt 0.480728 0.067821
vt 0.479009 0.069540
vt 0.476661 0.070169
vt 0.474312 0.069540
vt 0.472593 0.067821
vt 0.471964 0.065473
vt 0.472593 0.063124
vt 0.474312 0.061405
vt 0.476661 0.060776
vn 0.405149 0.093611 0.909445
vn 0.304063 0.283644 0.909446
vn -0.000000 0.000000 1.000000
vn 0.121504 0.397674 0.909446
vn -0.093611 0.405148 0.909446
vn -0.283644 0.304063 0.909446
vn -0.397674 0.121505 0.909446
vn -0.405148 -0.093610 0.909446
vn -0.304063 -0.283644 0.909446
vn -0.121505 -0.397675 0.909446
vn 0.093611 -0.405150 0.909445
vn 0.283646 -0.304064 0.909445
vn 0.397676 -0.121507 0.909445
vn 0.405149 0.093611 -0.909445
vn -0.000000 0.000000 -1.000000
vn 0.304063 0.283644 -0.909446
vn 0.121505 0.397674 -0.909446
vn -0.093610 0.405148 -0.909446
vn -0.283644 0.304063 -0.909446
vn -0.397674 0.121505 -0.909446
vn -0.405148 -0.093610 -0.909446
vn -0.304063 -0.283644 -0.909446
vn -0.121504 -0.397675 -0.909446
vn 0.093611 -0.405150 -0.909445
vn 0.283644 -0.304064 -0.909446
vn 0.397675 -0.121507 -0.909445
vn 0.865998 -0.006756 -0.500002
vn 0.499986 -0.006756 -0.866007
vn 0.499986 0.006756 -0.866007
vn 0.865998 0.006756 -0.500002
vn 0.000000 -0.006756 -0.999977
vn 0.000000 0.006756 -0.999977
vn -0.499986 -0.006756 -0.866007
vn -0.499986 0.006756 -0.866007
vn -0.865998 -0.006755 -0.500002
vn -0.865998 0.006756 -0.500002
vn -0.999977 -0.006756 0.000000
vn -0.999977 0.006756 0.000000
vn -0.866000 -0.006756 0.499999
vn -0.866000 0.006755 0.499999
vn -0.499986 -0.006756 0.866007
vn -0.499986 0.006756 0.866007
vn 0.000000 -0.006756 0.999977
vn 0.000000 0.006756 0.999977
vn 0.499986 -0.006756 0.866007
vn 0.499986 0.006756 0.866007
vn 0.866000 -0.006756 0.499999
vn 0.866000 0.006756 0.499999
vn 0.999977 -0.006756 -0.000000
vn 0.999977 0.006756 0.000000
vn 0.000000 -1.000000 -0.000000
vn 0.000000 1.000000 0.000000
s 1
g Traffic_Sign_4
usemtl lambert10SG
f 14/15/1 15/16/2 16/1/3
f 15/16/2 17/17/4 16/1/3
f 17/17/4 18/18/5 16/1/3
f 18/18/5 19/19/6 16/1/3
f 19/19/6 20/20/7 16/1/3
f 20/20/7 21/21/8 16/1/3
f 21/21/8 22/22/9 16/1/3
f 22/22/9 23/23/10 16/1/3
f 23/23/10 24/24/11 16/1/3
f 24/24/11 25/25/12 16/1/3
f 25/25/12 26/26/13 16/1/3
f 26/26/13 14/15/1 16/1/3
f 1/2/14 13/4/15 2/3/16
f 2/3/16 13/4/15 3/5/17
f 3/5/17 13/4/15 4/6/18
f 4/6/18 13/4/15 5/7/19
f 5/7/19 13/4/15 6/8/20
f 6/8/20 13/4/15 7/9/21
f 7/9/21 13/4/15 8/10/22
f 8/10/22 13/4/15 9/11/23
f 9/11/23 13/4/15 10/12/24
f 10/12/24 13/4/15 11/13/25
f 11/13/25 13/4/15 12/14/26
f 12/14/26 13/4/15 1/2/14
f 1/41/14 2/45/16 15/46/2 14/42/1
f 2/47/16 3/48/17 17/49/4 15/50/2
f 3/48/17 4/51/18 18/52/5 17/49/4
f 4/33/18 5/27/19 19/30/6 18/34/5
f 5/27/19 6/28/20 20/29/7 19/30/6
f 6/28/20 7/31/21 21/32/8 20/29/7
f 7/31/21 8/35/22 22/36/9 21/32/8
f 8/53/22 9/54/23 23/55/10 22/56/9
f 9/54/23 10/57/24 24/58/11 23/55/10
f 10/43/24 11/37/25 25/40/12 24/44/11
f 11/37/25 12/38/26 26/39/13 25/40/12
f 12/38/26 1/41/14 14/42/1 26/39/13
s 3
f 27/59/27 28/60/28 40/61/29 39/62/30
f 28/63/28 29/64/31 41/65/32 40/66/29
f 29/64/31 30/67/33 42/68/34 41/65/32
f 30/69/33 31/70/35 43/71/36 42/72/34
f 31/70/35 32/73/37 44/74/38 43/71/36
f 32/73/37 33/75/39 45/76/40 44/74/38
f 33/75/39 34/77/41 46/78/42 45/76/40
f 34/79/41 35/80/43 47/81/44 46/82/42
f 35/80/43 36/83/45 48/84/46 47/81/44
f 36/85/45 37/86/47 49/87/48 48/88/46
f 37/86/47 38/89/49 50/90/50 49/87/48
f 38/89/49 27/59/27 39/62/30 50/90/50
f 28/91/28 27/92/27 51/93/51
f 29/94/31 28/91/28 51/93/51
f 30/95/33 29/94/31 51/93/51
f 31/96/35 30/95/33 51/93/51
f 32/97/37 31/96/35 51/93/51
f 33/98/39 32/97/37 51/93/51
f 34/99/41 33/98/39 51/93/51
f 35/100/43 34/99/41 51/93/51
f 36/101/45 35/100/43 51/93/51
f 37/102/47 36/101/45 51/93/51
f 38/103/49 37/102/47 51/93/51
f 27/92/27 38/103/49 51/93/51
f 39/104/30 40/105/29 52/106/52
f 40/105/29 41/107/32 52/106/52
f 41/107/32 42/108/34 52/106/52
f 42/108/34 43/109/36 52/106/52
f 43/109/36 44/110/38 52/106/52
f 44/110/38 45/111/40 52/106/52
f 45/111/40 46/112/42 52/106/52
f 46/112/42 47/113/44 52/106/52
f 47/113/44 48/114/46 52/106/52
f 48/114/46 49/115/48 52/106/52
f 49/115/48 50/116/50 52/106/52
f 50/116/50 39/104/30 52/106/52
