# This file uses meters as units for non-parametric coordinates.

mtllib Traffic_Sign_8.mtl
g default
v 1.191547 -1.316889 -1.185086
v 0.066411 -1.316889 -2.310269
v -1.470675 -1.316889 -2.722101
v -3.007760 -1.316889 -2.310269
v -4.132896 -1.316889 -1.185086
v -4.544752 -1.316889 0.351952
v -4.132896 -1.316889 1.888991
v -3.007760 -1.316889 3.014174
v -1.470675 -1.316889 3.426006
v 0.066411 -1.316889 3.014174
v 1.191547 -1.316889 1.888991
v 1.603403 -1.316889 0.351952
v 1.191547 188.272111 -1.185086
v 0.066411 188.272111 -2.310269
v -1.470675 188.272111 -2.722101
v -3.007760 188.272111 -2.310269
v -4.132896 188.272111 -1.185086
v -4.544752 188.272111 0.351952
v -4.132896 188.272111 1.888991
v -3.007760 188.272111 3.014174
v -1.470675 188.272111 3.426006
v 0.066411 188.272111 3.014174
v 1.191547 188.272111 1.888991
v 1.603403 188.272111 0.351952
v -1.470675 -1.316889 0.351952
v -1.470675 188.272111 0.351952
v 39.476791 232.270145 -3.859439
v 29.627306 250.786480 -3.859439
v 11.839209 261.897350 -3.859439
v -9.121146 262.625565 -3.859439
v -27.637410 252.776150 -3.859439
v -38.748281 234.988101 -3.859439
v -39.476731 214.027768 -3.859439
v -29.627151 195.511410 -3.859439
v -11.838961 184.400516 -3.859439
v 9.121301 183.672278 -3.859439
v 27.637471 193.521764 -3.859439
v 38.748341 211.309777 -3.859439
v 0.000077 223.148945 -3.859439
v 39.476791 232.270145 3.859440
v 29.627306 250.786480 3.859440
v 0.000077 223.148945 3.859440
v 11.839209 261.897350 3.859440
v -9.121146 262.625565 3.859440
v -27.637410 252.776150 3.859440
v -38.748281 234.988101 3.859440
v -39.476731 214.027768 3.859440
v -29.627151 195.511410 3.859440
v -11.838961 184.400516 3.859440
v 9.121301 183.672278 3.859440
v 27.637471 193.521764 3.859440
v 38.748341 211.309777 3.859440
vt 0.445787 0.060776
vt 0.448135 0.060776
vt 0.448135 0.350441
vt 0.445787 0.350441
vt 0.450483 0.060776
vt 0.450483 0.350441
vt 0.444067 0.060776
vt 0.444067 0.350441
vt 0.452202 0.060776
vt 0.452202 0.350441
vt 0.428891 0.060776
vt 0.431239 0.060776
vt 0.431239 0.350441
vt 0.428891 0.350441
vt 0.433588 0.060776
vt 0.433588 0.350441
vt 0.427172 0.060776
vt 0.427172 0.350441
vt 0.435307 0.060776
vt 0.435307 0.350441
vt 0.461540 0.063124
vt 0.463259 0.061405
vt 0.465607 0.065473
vt 0.465607 0.060776
vt 0.460911 0.065473
vt 0.467956 0.061405
vt 0.461540 0.067821
vt 0.469675 0.063124
vt 0.463259 0.069540
vt 0.470304 0.065473
vt 0.465607 0.070169
vt 0.469675 0.067821
vt 0.467956 0.069540
vt 0.479009 0.061405
vt 0.480728 0.063124
vt 0.476661 0.065473
vt 0.481357 0.065473
vt 0.476661 0.060776
vt 0.480728 0.067821
vt 0.474312 0.061405
vt 0.479009 0.069540
vt 0.472593 0.063124
vt 0.476661 0.070169
vt 0.471964 0.065473
vt 0.474312 0.069540
vt 0.472593 0.067821
vt 0.441922 0.350441
vt 0.439573 0.350441
vt 0.439573 0.060776
vt 0.441922 0.060776
vt 0.437225 0.350441
vt 0.437225 0.060776
vt 0.454068 0.060776
vt 0.456417 0.060776
vt 0.456417 0.350441
vt 0.454068 0.350441
vt 0.458765 0.060776
vt 0.458765 0.350441
vt 0.332759 0.883592
vt 0.299057 0.943810
vt 0.200681 0.852371
vt 0.238994 0.979528
vt 0.168665 0.981173
vt 0.106915 0.948307
vt 0.070289 0.889734
vt 0.068602 0.821150
vt 0.102305 0.760931
vt 0.162367 0.725214
vt 0.232696 0.723568
vt 0.294446 0.756435
vt 0.331072 0.815008
vt 0.332759 0.883592
vt 0.200681 0.852371
vt 0.299057 0.943810
vt 0.238994 0.979528
vt 0.168665 0.981173
vt 0.106915 0.948307
vt 0.070289 0.889734
vt 0.068602 0.821150
vt 0.102305 0.760931
vt 0.162367 0.725214
vt 0.232696 0.723568
vt 0.294446 0.756435
vt 0.331072 0.815008
vt 0.799849 0.109130
vt 0.799849 0.033950
vt 0.838980 0.033950
vt 0.838980 0.109130
vt 0.922526 0.033950
vt 0.922526 0.136648
vt 0.883395 0.136648
vt 0.883395 0.033950
vt 0.922526 0.239346
vt 0.883395 0.239346
vt 0.841655 0.389706
vt 0.841655 0.314526
vt 0.880785 0.314526
vt 0.880785 0.389706
vt 0.841655 0.211828
vt 0.880785 0.211828
vt 0.841655 0.109130
vt 0.880785 0.109130
vt 0.841655 0.033950
vt 0.880785 0.033950
vt 0.925135 0.239346
vt 0.925135 0.136647
vt 0.964266 0.136647
vt 0.964266 0.239346
vt 0.925135 0.033950
vt 0.964266 0.033950
vt 0.799849 0.389707
vt 0.799849 0.314526
vt 0.838980 0.314526
vt 0.838980 0.389707
vt 0.799849 0.211829
vt 0.838980 0.211829
vn 0.866011 -0.006756 -0.499979
vn 0.499986 -0.006756 -0.866007
vn 0.499986 0.006756 -0.866007
vn 0.866011 0.006756 -0.499979
vn 0.000000 -0.006756 -0.999977
vn 0.000000 0.006756 -0.999977
vn -0.499986 -0.006756 -0.866007
vn -0.499986 0.006756 -0.866007
vn -0.866011 -0.006756 -0.499979
vn -0.866011 0.006756 -0.499979
vn -0.999977 -0.006756 0.000000
vn -0.999977 0.006756 0.000000
vn -0.866013 -0.006756 0.499976
vn -0.866013 0.006756 0.499976
vn -0.499986 -0.006756 0.866007
vn -0.499986 0.006756 0.866007
vn 0.000000 -0.006756 0.999977
vn 0.000000 0.006756 0.999977
vn 0.499986 -0.006756 0.866007
vn 0.499986 0.006756 0.866007
vn 0.866013 -0.006756 0.499976
vn 0.866013 0.006756 0.499976
vn 0.999977 -0.006756 -0.000000
vn 0.999977 0.006756 0.000000
vn 0.000000 -1.000000 -0.000000
vn 0.000000 1.000000 0.000000
vn 0.405150 0.093610 0.909445
vn 0.304063 0.283644 0.909446
vn -0.000000 0.000000 1.000000
vn 0.121505 0.397674 0.909446
vn -0.093611 0.405148 0.909446
vn -0.283644 0.304064 0.909446
vn -0.397673 0.121507 0.909446
vn -0.405150 -0.093610 0.909445
vn -0.304063 -0.283645 0.909446
vn -0.121506 -0.397675 0.909446
vn 0.093611 -0.405149 0.909446
vn 0.283645 -0.304064 0.909446
vn 0.397675 -0.121507 0.909445
vn 0.405150 0.093610 -0.909445
vn 0.000000 0.000000 -1.000000
vn 0.304064 0.283644 -0.909446
vn 0.121505 0.397674 -0.909446
vn -0.093611 0.405148 -0.909446
vn -0.283644 0.304064 -0.909446
vn -0.397673 0.121507 -0.909446
vn -0.405149 -0.093610 -0.909446
vn -0.304062 -0.283645 -0.909446
vn -0.121505 -0.397675 -0.909446
vn 0.093612 -0.405149 -0.909446
vn 0.283646 -0.304063 -0.909445
vn 0.397674 -0.121507 -0.909446
s 1
g Traffic_Sign_8
usemtl lambert10SG
f 1/15/1 2/19/2 14/20/3 13/16/4
f 2/47/2 3/48/5 15/49/6 14/50/3
f 3/48/5 4/51/7 16/52/8 15/49/6
f 4/7/7 5/1/9 17/4/10 16/8/8
f 5/1/9 6/2/11 18/3/12 17/4/10
f 6/2/11 7/5/13 19/6/14 18/3/12
f 7/5/13 8/9/15 20/10/16 19/6/14
f 8/53/15 9/54/17 21/55/18 20/56/16
f 9/54/17 10/57/19 22/58/20 21/55/18
f 10/17/19 11/11/21 23/14/22 22/18/20
f 11/11/21 12/12/23 24/13/24 23/14/22
f 12/12/23 1/15/1 13/16/4 24/13/24
f 2/21/2 1/22/1 25/23/25
f 3/25/5 2/21/2 25/23/25
f 4/27/7 3/25/5 25/23/25
f 5/29/9 4/27/7 25/23/25
f 6/31/11 5/29/9 25/23/25
f 7/33/13 6/31/11 25/23/25
f 8/32/15 7/33/13 25/23/25
f 9/30/17 8/32/15 25/23/25
f 10/28/19 9/30/17 25/23/25
f 11/26/21 10/28/19 25/23/25
f 12/24/23 11/26/21 25/23/25
f 1/22/1 12/24/23 25/23/25
f 13/34/4 14/35/3 26/36/26
f 14/35/3 15/37/6 26/36/26
f 15/37/6 16/39/8 26/36/26
f 16/39/8 17/41/10 26/36/26
f 17/41/10 18/43/12 26/36/26
f 18/43/12 19/45/14 26/36/26
f 19/45/14 20/46/16 26/36/26
f 20/46/16 21/44/18 26/36/26
f 21/44/18 22/42/20 26/36/26
f 22/42/20 23/40/22 26/36/26
f 23/40/22 24/38/24 26/36/26
f 24/38/24 13/34/4 26/36/26
s 2
f 40/59/27 41/60/28 42/61/29
f 41/60/28 43/62/30 42/61/29
f 43/62/30 44/63/31 42/61/29
f 44/63/31 45/64/32 42/61/29
f 45/64/32 46/65/33 42/61/29
f 46/65/33 47/66/34 42/61/29
f 47/66/34 48/67/35 42/61/29
f 48/67/35 49/68/36 42/61/29
f 49/68/36 50/69/37 42/61/29
f 50/69/37 51/70/38 42/61/29
f 51/70/38 52/71/39 42/61/29
f 52/71/39 40/59/27 42/61/29
f 27/72/40 39/73/41 28/74/42
f 28/74/42 39/73/41 29/75/43
f 29/75/43 39/73/41 30/76/44
f 30/76/44 39/73/41 31/77/45
f 31/77/45 39/73/41 32/78/46
f 32/78/46 39/73/41 33/79/47
f 33/79/47 39/73/41 34/80/48
f 34/80/48 39/73/41 35/81/49
f 35/81/49 39/73/41 36/82/50
f 36/82/50 39/73/41 37/83/51
f 37/83/51 39/73/41 38/84/52
f 38/84/52 39/73/41 27/72/40
f 27/85/40 28/86/42 41/87/28 40/88/27
f 28/89/42 29/90/43 43/91/30 41/92/28
f 29/90/43 30/93/44 44/94/31 43/91/30
f 30/95/44 31/96/45 45/97/32 44/98/31
f 31/96/45 32/99/46 46/100/33 45/97/32
f 32/99/46 33/101/47 47/102/34 46/100/33
f 33/101/47 34/103/48 48/104/35 47/102/34
f 34/105/48 35/106/49 49/107/36 48/108/35
f 35/106/49 36/109/50 50/110/37 49/107/36
f 36/111/50 37/112/51 51/113/38 50/114/37
f 37/112/51 38/115/52 52/116/39 51/113/38
f 38/115/52 27/85/40 40/88/27 52/116/39
