# This file uses meters as units for non-parametric coordinates.

mtllib GraveStone_6.mtl
g default
v -37.983579 -0.000046 11.584244
v 37.983579 -0.000046 11.584244
v -37.983579 98.403076 11.584244
v 37.983579 98.403076 11.584244
v -37.983579 98.403076 -11.584188
v 37.983579 98.403076 -11.584188
v -37.983579 -0.000046 -11.584188
v 37.983579 -0.000046 -11.584188
v 0.000000 136.133401 11.584244
v -18.989935 124.149979 11.584244
v 18.989935 124.149979 11.584244
v -18.989935 124.149979 -11.584188
v 0.000000 136.133401 -11.584188
v 18.989935 124.149979 -11.584188
v -18.989935 0.000017 11.584244
v -18.989935 0.000017 -11.584188
v 18.989935 0.000017 11.584244
v 18.989935 0.000017 -11.584188
v 0.000000 0.000067 11.584244
v 0.000000 0.000067 -11.584188
vt 0.089744 0.722163
vt 0.181669 0.722163
vt 0.181669 0.804294
vt 0.089744 0.804294
vt 0.181669 0.825783
vt 0.089744 0.825783
vt 0.183125 0.722163
vt 0.275050 0.722163
vt 0.275050 0.804294
vt 0.183125 0.804294
vt 0.275050 0.825783
vt 0.183125 0.825783
vt 0.042330 0.722163
vt 0.065309 0.722163
vt 0.065309 0.814087
vt 0.042330 0.814087
vt 0.088288 0.722163
vt 0.088288 0.814087
vt 0.355713 0.784058
vt 0.332729 0.762569
vt 0.332729 0.680438
vt 0.355713 0.680438
vt 0.378692 0.794060
vt 0.378692 0.680438
vt 0.401670 0.784058
vt 0.401670 0.680438
vt 0.424654 0.762569
vt 0.424654 0.680438
vt 0.132096 0.639084
vt 0.155080 0.617595
vt 0.155080 0.721215
vt 0.132096 0.721215
vt 0.178058 0.607593
vt 0.178058 0.721215
vt 0.201037 0.617595
vt 0.201037 0.721215
vt 0.224020 0.639084
vt 0.224020 0.721215
vn -0.673608 0.103055 0.731869
vn -0.198771 0.200105 0.959400
vn -0.198771 0.200105 -0.959400
vn -0.673608 0.103055 -0.731869
vn 0.733348 0.000000 0.679854
vn 0.733348 0.000000 -0.679854
vn 0.673608 0.103055 -0.731869
vn 0.673608 0.103055 0.731869
vn -0.733348 0.000000 -0.679854
vn -0.733348 0.000000 0.679854
vn 0.198771 0.200105 -0.959400
vn 0.198771 0.200105 0.959400
vn 0.000000 0.234305 0.972163
vn 0.000000 0.234305 -0.972163
vn -0.000000 0.000000 1.000000
vn 0.000000 0.000000 -1.000000
vn 0.000000 0.000000 1.000000
vn 0.000000 0.000000 -1.000000
vn 0.000000 0.000000 1.000000
vn 0.000000 0.000000 -1.000000
s 1
g GraveStone_6
usemtl lambert23SG
f 3/9/1 10/11/2 12/12/3 5/10/4
f 2/1/5 8/2/6 6/3/7 4/4/8
f 7/7/9 1/8/10 3/9/1 5/10/4
f 14/5/11 11/6/12 4/4/8 6/3/7
f 10/13/2 9/14/13 13/15/14 12/16/3
f 9/14/13 11/17/12 14/18/11 13/15/14
f 10/19/2 3/20/1 1/21/10 15/22/15
f 5/29/4 12/30/3 16/31/16 7/32/9
f 4/27/8 11/25/12 17/26/17 2/28/5
f 14/35/11 6/37/7 8/38/6 18/36/18
f 9/23/13 10/19/2 15/22/15 19/24/19
f 12/30/3 13/33/14 20/34/20 16/31/16
f 11/25/12 9/23/13 19/24/19 17/26/17
f 13/33/14 14/35/11 18/36/18 20/34/20
