# This file uses meters as units for non-parametric coordinates.

mtllib GraveStone_3.mtl
g default
v -48.144822 0.000000 28.140587
v 48.144822 0.000000 28.140587
v -48.144822 19.645353 28.140587
v 48.144822 19.645353 28.140587
v -48.144822 19.645353 -28.140587
v 48.144822 19.645353 -28.140587
v -48.144822 0.000000 -28.140587
v 48.144822 0.000000 -28.140587
vt 0.557458 0.822642
vt 0.695215 0.822642
vt 0.695215 0.960400
vt 0.557458 0.960400
vt 0.698282 0.822642
vt 0.836039 0.822642
vt 0.836039 0.960400
vt 0.698282 0.960400
vt 0.698282 0.543960
vt 0.836039 0.543960
vt 0.836039 0.681717
vt 0.698282 0.681717
vt 0.674722 0.683301
vt 0.812480 0.683301
vt 0.812480 0.821059
vt 0.674722 0.821059
vt 0.557458 0.543960
vt 0.695215 0.543960
vt 0.695215 0.681717
vt 0.557458 0.681717
vt 0.814914 0.683301
vt 0.952672 0.683301
vt 0.952672 0.821059
vt 0.814914 0.821059
vn -0.189149 -0.927093 0.323608
vn 0.189149 -0.927093 0.323608
vn 0.189149 0.927093 0.323608
vn -0.189149 0.927093 0.323608
vn 0.189149 0.927093 -0.323608
vn -0.189149 0.927093 -0.323608
vn 0.189149 -0.927093 -0.323608
vn -0.189149 -0.927093 -0.323608
s 1
g GraveStone_3
usemtl lambert23SG
f 1/17/1 2/18/2 4/19/3 3/20/4
f 3/9/4 4/10/3 6/11/5 5/12/6
f 5/21/6 6/22/5 8/23/7 7/24/8
f 7/13/8 8/14/7 2/15/2 1/16/1
f 2/1/2 8/2/7 6/3/5 4/4/3
f 7/5/8 1/6/1 3/7/4 5/8/6
