# This file uses meters as units for non-parametric coordinates.

mtllib GraveStone_9.mtl
g default
v -37.983579 0.000000 11.584188
v 37.983579 0.000000 11.584188
v -37.983579 121.225936 11.584188
v 37.983579 121.225936 11.584188
v -37.983579 121.225936 -11.584188
v 37.983579 121.225936 -11.584188
v -37.983579 0.000000 -11.584188
v 37.983579 0.000000 -11.584188
vt 0.537775 0.813834
vt 0.627497 0.813834
vt 0.627497 0.903556
vt 0.537775 0.903556
vt 0.629494 0.813834
vt 0.719217 0.813834
vt 0.719217 0.903556
vt 0.629494 0.903556
vt 0.629494 0.632326
vt 0.719217 0.632326
vt 0.719217 0.722048
vt 0.629494 0.722048
vt 0.614150 0.723080
vt 0.703872 0.723080
vt 0.703872 0.812802
vt 0.614150 0.812802
vt 0.865645 0.722226
vt 0.955368 0.722226
vt 0.955368 0.811949
vt 0.865645 0.811949
vt 0.705458 0.723080
vt 0.795180 0.723080
vt 0.795180 0.812802
vt 0.705458 0.812802
vn -0.286959 -0.179825 0.940913
vn 0.286959 -0.179825 0.940913
vn 0.286959 0.179825 0.940913
vn -0.286959 0.179825 0.940913
vn 0.286959 0.179825 -0.940913
vn -0.286959 0.179825 -0.940913
vn 0.286959 -0.179825 -0.940913
vn -0.286959 -0.179825 -0.940913
s 1
g GraveStone_9
usemtl lambert23SG
f 1/17/1 2/18/2 4/19/3 3/20/4
f 3/9/4 4/10/3 6/11/5 5/12/6
f 5/21/6 6/22/5 8/23/7 7/24/8
f 7/13/8 8/14/7 2/15/2 1/16/1
f 2/1/2 8/2/7 6/3/5 4/4/3
f 7/5/8 1/6/1 3/7/4 5/8/6
