# This file uses meters as units for non-parametric coordinates.

mtllib GraveStone_8.mtl
g default
v -37.983579 -0.000046 11.584244
v 37.983579 -0.000046 11.584244
v -37.983579 110.136643 11.584244
v 37.983579 110.136643 11.584244
v -37.983579 110.136643 -11.584188
v 37.983579 110.136643 -11.584188
v -37.983579 -0.000046 -11.584188
v 37.983579 -0.000046 -11.584188
v 0.000000 124.399839 11.584244
v -18.989935 119.869743 11.584244
v 18.989935 119.869743 11.584244
v -18.989935 119.869743 -11.584188
v 0.000000 124.399839 -11.584188
v 18.989935 119.869743 -11.584188
v -18.989935 0.000017 11.584244
v -18.989935 0.000017 -11.584188
v 18.989935 0.000017 11.584244
v 18.989935 0.000017 -11.584188
v 0.000000 0.000067 11.584244
v 0.000000 0.000067 -11.584188
vt 0.356710 0.290475
vt 0.356710 0.170293
vt 0.476891 0.170293
vt 0.476891 0.290475
vt 0.249337 0.412059
vt 0.249337 0.291877
vt 0.369519 0.291877
vt 0.369519 0.412059
vt 0.479046 0.170293
vt 0.509095 0.170293
vt 0.509095 0.290475
vt 0.479046 0.290475
vt 0.539137 0.170293
vt 0.539137 0.290475
vt 0.569180 0.170293
vt 0.569180 0.290475
vt 0.599228 0.170293
vt 0.599228 0.290475
vt 0.741859 0.299883
vt 0.711811 0.289262
vt 0.711811 0.169080
vt 0.741859 0.169080
vt 0.771902 0.304826
vt 0.771902 0.169080
vt 0.801944 0.299883
vt 0.801944 0.169080
vt 0.831993 0.289262
vt 0.831993 0.169080
vt 0.371958 0.048709
vt 0.402006 0.038089
vt 0.402006 0.168891
vt 0.371958 0.168891
vt 0.432048 0.033145
vt 0.432048 0.168891
vt 0.462091 0.038089
vt 0.462091 0.168891
vt 0.492139 0.048709
vt 0.492139 0.168891
vn -0.717908 0.113754 0.686781
vn -0.075547 0.201184 0.976636
vn -0.075547 0.201184 -0.976636
vn -0.717908 0.113754 -0.686781
vn 0.759674 0.000000 0.650304
vn 0.759674 0.000000 -0.650304
vn 0.717908 0.113754 -0.686781
vn 0.717908 0.113754 0.686781
vn -0.759674 0.000000 -0.650304
vn -0.759674 0.000000 0.650304
vn 0.075547 0.201184 -0.976636
vn 0.075547 0.201184 0.976636
vn 0.000000 0.207083 0.978323
vn 0.000000 0.207083 -0.978323
vn 0.000000 0.000000 1.000000
vn 0.000000 0.000000 -1.000000
vn -0.000000 0.000000 1.000000
vn -0.000000 0.000000 -1.000000
vn 0.000000 0.000000 1.000000
vn 0.000000 0.000000 -1.000000
s 1
g GraveStone_8
usemtl lambert23SG
f 3/9/1 10/10/2 12/11/3 5/12/4
f 2/1/5 8/2/6 6/3/7 4/4/8
f 7/5/9 1/6/10 3/7/1 5/8/4
f 14/16/11 11/15/12 4/17/8 6/18/7
f 10/10/2 9/13/13 13/14/14 12/11/3
f 9/13/13 11/15/12 14/16/11 13/14/14
f 10/19/2 3/20/1 1/21/10 15/22/15
f 5/29/4 12/30/3 16/31/16 7/32/9
f 4/27/8 11/25/12 17/26/17 2/28/5
f 14/35/11 6/37/7 8/38/6 18/36/18
f 9/23/13 10/19/2 15/22/15 19/24/19
f 12/30/3 13/33/14 20/34/20 16/31/16
f 11/25/12 9/23/13 19/24/19 17/26/17
f 13/33/14 14/35/11 18/36/18 20/34/20
